<mxfile host="app.diagrams.net" agent="Mozilla/5.0 (Windows NT 10.0; Win64; x64) AppleWebKit/537.36 (KHTML, like Gecko) Chrome/141.0.0.0 Safari/537.36" version="28.2.8">
  <diagram name="Page-1" id="sWDfryysk6n-3_u3-3tR">
    <mxGraphModel dx="1163" dy="636" grid="1" gridSize="10" guides="1" tooltips="1" connect="1" arrows="1" fold="1" page="1" pageScale="1" pageWidth="850" pageHeight="1100" math="0" shadow="0">
      <root>
        <mxCell id="0" />
        <mxCell id="1" parent="0" />
        <mxCell id="wbkLNlwd_sPks_fUpgUF-5" value="" style="html=1;shadow=0;dashed=0;align=center;verticalAlign=middle;shape=mxgraph.arrows2.stylisedArrow;dy=0.6;dx=40;notch=15;feather=0.4;fillColor=#6a00ff;fontColor=#ffffff;strokeColor=#3700CC;rotation=90;" vertex="1" parent="1">
          <mxGeometry x="375" y="310" width="100" height="60" as="geometry" />
        </mxCell>
        <mxCell id="wbkLNlwd_sPks_fUpgUF-6" value="&lt;font style=&quot;font-size: 21px;&quot;&gt;&lt;b style=&quot;&quot;&gt;User Interface / Bio Tools&lt;/b&gt;&lt;/font&gt;" style="rounded=1;whiteSpace=wrap;html=1;fillColor=#f8cecc;strokeColor=#b85450;gradientColor=#ea6b66;" vertex="1" parent="1">
          <mxGeometry x="288" y="170" width="275" height="90" as="geometry" />
        </mxCell>
        <mxCell id="wbkLNlwd_sPks_fUpgUF-7" value="&lt;font style=&quot;font-size: 21px;&quot;&gt;&lt;b style=&quot;&quot;&gt;HOLAP Engine&lt;/b&gt;&lt;/font&gt;" style="rounded=1;whiteSpace=wrap;html=1;fillColor=#f8cecc;strokeColor=#b85450;gradientColor=#ea6b66;" vertex="1" parent="1">
          <mxGeometry x="288" y="410" width="275" height="90" as="geometry" />
        </mxCell>
        <mxCell id="wbkLNlwd_sPks_fUpgUF-9" value="&lt;span style=&quot;font-size: 20px;&quot;&gt;&lt;b&gt;Multidimensional Data Cube&lt;/b&gt;&lt;/span&gt;&lt;div&gt;&lt;span style=&quot;font-size: 20px;&quot;&gt;&lt;b&gt;(MOLAP)&lt;/b&gt;&lt;/span&gt;&lt;/div&gt;" style="ellipse;whiteSpace=wrap;html=1;fillColor=#d5e8d4;gradientColor=#97d077;strokeColor=#82b366;" vertex="1" parent="1">
          <mxGeometry x="460" y="640" width="290" height="110" as="geometry" />
        </mxCell>
        <mxCell id="wbkLNlwd_sPks_fUpgUF-10" value="" style="html=1;shadow=0;dashed=0;align=center;verticalAlign=middle;shape=mxgraph.arrows2.stylisedArrow;dy=0.6;dx=40;notch=15;feather=0.4;fillColor=#6a00ff;fontColor=#ffffff;strokeColor=#3700CC;rotation=120;" vertex="1" parent="1">
          <mxGeometry x="310" y="540" width="100" height="60" as="geometry" />
        </mxCell>
        <mxCell id="wbkLNlwd_sPks_fUpgUF-14" value="&lt;b&gt;&lt;font style=&quot;font-size: 22px;&quot;&gt;HOLAP (Hybrid OLAP) Architecture Diagram&lt;/font&gt;&lt;/b&gt;" style="rounded=1;whiteSpace=wrap;html=1;fillColor=#f8cecc;strokeColor=#b85450;gradientColor=#ea6b66;" vertex="1" parent="1">
          <mxGeometry x="140" y="30" width="560" height="90" as="geometry" />
        </mxCell>
        <mxCell id="wbkLNlwd_sPks_fUpgUF-15" value="&lt;span style=&quot;font-size: 20px;&quot;&gt;&lt;b&gt;Relational Database (ROLAP)&lt;/b&gt;&lt;/span&gt;" style="ellipse;whiteSpace=wrap;html=1;fillColor=#d5e8d4;gradientColor=#97d077;strokeColor=#82b366;" vertex="1" parent="1">
          <mxGeometry x="110" y="640" width="290" height="110" as="geometry" />
        </mxCell>
        <mxCell id="wbkLNlwd_sPks_fUpgUF-16" value="" style="html=1;shadow=0;dashed=0;align=center;verticalAlign=middle;shape=mxgraph.arrows2.stylisedArrow;dy=0.6;dx=40;notch=15;feather=0.4;fillColor=#6a00ff;fontColor=#ffffff;strokeColor=#3700CC;rotation=70;" vertex="1" parent="1">
          <mxGeometry x="440" y="540" width="100" height="60" as="geometry" />
        </mxCell>
      </root>
    </mxGraphModel>
  </diagram>
</mxfile>
